inDegrees=no
num_controls=7
num_derivatives=13
num_iterations=83
num_multipliers=7
num_parameters=0
num_slacks=7
num_states=26
objective=0.453024
objective_accelerations=0.048908
objective_balance=0.001052
objective_effort=0.037813
objective_height=0.359635
objective_ligament=0.005616
solver_duration=936.027074
status=Solve_Succeeded
success=true
DataType=double
version=3
OpenSimVersion=4.5
endheader
time	/jointset/ground_pelvis/pelvis_tilt/value	/jointset/ground_pelvis/pelvis_tx/value	/jointset/ground_pelvis/pelvis_ty/value	/jointset/hip_r/hip_flexion_r/value	/jointset/hip_r/hip_adduction_r/value	/jointset/hip_r/hip_rotation_r/value	/jointset/back/lumbar_extension/value	/jointset/patellofemoral_r/patellar_flexion_r/value	/jointset/knee_r/knee_flexion_r/value	/jointset/knee_r/knee_adduction_r/value	/jointset/knee_r/knee_rotation_r/value	/jointset/ankle_r/ankle_angle_r/value	/jointset/subtalar_r/subtalar_angle_r/value	/jointset/ground_pelvis/pelvis_tilt/speed	/jointset/ground_pelvis/pelvis_tx/speed	/jointset/ground_pelvis/pelvis_ty/speed	/jointset/hip_r/hip_flexion_r/speed	/jointset/hip_r/hip_adduction_r/speed	/jointset/hip_r/hip_rotation_r/speed	/jointset/back/lumbar_extension/speed	/jointset/patellofemoral_r/patellar_flexion_r/speed	/jointset/knee_r/knee_flexion_r/speed	/jointset/knee_r/knee_adduction_r/speed	/jointset/knee_r/knee_rotation_r/speed	/jointset/ankle_r/ankle_angle_r/speed	/jointset/subtalar_r/subtalar_angle_r/speed	/forceset/tau_hip_flexion_r	/forceset/tau_hip_adduction_r	/forceset/tau_hip_rotation_r	/forceset/tau_knee_flexion_r	/forceset/tau_ankle_angle_r	/forceset/tau_subtalar_angle_r	/forceset/tau_lumbar_extension	lambda_cid13_p0	lambda_cid14_p0	lambda_cid14_p1	lambda_cid14_p2	lambda_cid14_p3	lambda_cid14_p4	lambda_cid14_p5	/jointset/ground_pelvis/pelvis_tilt/accel	/jointset/ground_pelvis/pelvis_tx/accel	/jointset/ground_pelvis/pelvis_ty/accel	/jointset/hip_r/hip_flexion_r/accel	/jointset/hip_r/hip_adduction_r/accel	/jointset/hip_r/hip_rotation_r/accel	/jointset/back/lumbar_extension/accel	/jointset/patellofemoral_r/patellar_flexion_r/accel	/jointset/knee_r/knee_flexion_r/accel	/jointset/knee_r/knee_adduction_r/accel	/jointset/knee_r/knee_rotation_r/accel	/jointset/ankle_r/ankle_angle_r/accel	/jointset/subtalar_r/subtalar_angle_r/accel	gamma_cid13_p0	gamma_cid14_p0	gamma_cid14_p1	gamma_cid14_p2	gamma_cid14_p3	gamma_cid14_p4	gamma_cid14_p5
0	0.001061681095904482	0.1273741331386317	0.9344784535553879	0.1934211968871041	-0.214526389372722	-0.2380137455084391	-0.2903787966825928	0.2311786273363316	0.2311786273363406	0.1032376816573981	0.1615253131680318	0.089344008118978	0.08075994213801223	0	0	0	0	0	0	0	0	0	0	0	0	0	0.1042659244217205	-0.0181776605673653	0.001205618492338529	-0.228163772410613	0.1060994940069103	-0.08577509621287156	-0.02645607462157021	-29.49357604490089	-12.4558475406823	-35.477174171918	1.559400382646103	8.663067340890784	-608.363430364426	29.50444137783736	-1.734342147616435	-1.970478720464898	-0.8676015374501541	10.03447663795142	0.06861374064680249	1.759396379324385	-6.499936840401903	10.3300905360648	10.33009053606695	-2.874525737697418	0.6802025550806734	2.71601412998753	0.8899443894038924	2.415542465820544e-08	3.392061899564706e-08	-1.547856425426831e-07	2.160004034090821e-07	-1.598537555738492e-08	2.221999383855193e-07	-1.902399349177061e-07
0.01	0.000979926455262774	0.127278467006108	0.9344362423752869	0.1939088325701867	-0.2145214239592075	-0.237925111030429	-0.2907028205448018	0.2316850486523269	0.2316850486523114	0.1030935095761981	0.1615552116434692	0.08947925728906168	0.08080616734948654	-0.01640037781738921	-0.01887155626888062	-0.008424479586955001	0.09699439827624215	0.0009631412846720659	0.01773598700399463	-0.06413349591370153	0.1008085245062375	0.1008085245062448	-0.02863334663748777	0.005847986719143913	0.02712276949518197	0.009231573685915652	0.1042897600489087	-0.03485703550810263	0.00116934871043385	-0.2351193380529004	0.1153672870174243	-0.07503429440933963	-0.02488605941971743	-29.49985009278907	-8.869970673868755	-30.2039708166411	0.7408527848203135	3.746931254217109	-610.3272005256966	41.27080580867895	-1.600307436181741	-1.806246740789493	-0.8271632643907243	9.452010015121211	0.1056801025604844	1.782104744862126	-6.269364488263315	9.884867773323762	9.884867773323471	-2.827585612505962	0.5173815639482381	2.721352205422932	0.9377445030231567	3.743872041582727e-08	1.071728091011279e-08	-2.562769864004515e-07	2.473034828538756e-07	1.718841951387182e-08	5.548874012686937e-08	-2.652154260482884e-07
0.02	0.000732683668985628	0.1270019347787587	0.9343103279803014	0.1953504299545726	-0.2145077239768106	-0.2376588357055914	-0.2916480410704277	0.233185282086429	0.2331852820864255	0.1026690347313935	0.1616396469529022	0.08988792292332866	0.08094430442678742	-0.03309762913008175	-0.03617321896511067	-0.01674064297685821	0.1907923402589261	0.001746913776681731	0.0355281693649892	-0.1242393326838175	0.1987624236292954	0.1987624236292955	-0.05606055270423267	0.01090736678295776	0.05468329283594406	0.01838237316534261	0.1043135956760549	-0.05153641044886913	0.00113307892889538	-0.2420749036952358	0.1246350800279071	-0.06429349260586538	-0.02331604421788053	-29.5180783123918	-5.204319223546117	-24.93309076859352	-0.05871504025118485	-1.141625477419248	-611.0126151452524	52.76606066575281	-1.793716846677471	-1.656500005934421	-0.8459382980398135	9.395185379239729	0.03273998211433991	1.770635450724364	-5.694405011684992	9.759165459428814	9.759165459428045	-2.633297623548875	0.5224812240146192	2.803564899103952	0.8737895481062971	5.072201617344911e-08	-1.248605717542147e-08	-3.577683302582199e-07	2.786065622986691e-07	5.036221458512855e-08	-1.112224581317805e-07	-3.401909171788705e-07
0.03	0.0003181884367014593	0.126558162875651	0.9341015760300168	0.1977154617064611	-0.2144870837779961	-0.2372165706946443	-0.2931772679670375	0.2356511849141946	0.2356511849141881	0.1019761050557855	0.1617728815718457	0.09057195652003967	0.08117286644183279	-0.04969082513183934	-0.0525256145116868	-0.02500609966606816	0.281775510217375	0.002371654043361156	0.05280236667247756	-0.1812854761379479	0.2939616575653131	0.2939616575653106	-0.08237558964136889	0.01571989863127968	0.08195676131219437	0.02727342396887061	0.09866615611947513	-0.05006439575261222	0.001446673852836986	-0.2357555904089483	0.1156177673654661	-0.06147940775283142	-0.01879372762250816	-29.54736910120725	-7.938686397709781	-24.03464208132036	-0.3790675479476784	0.337416148039943	-611.274225343103	53.60028895965684	-1.575528304304093	-1.616267049849344	-0.8163251603816297	8.88410904216529	0.07592385320080351	1.687498060706016	-5.661633437849664	9.331819508794959	9.331819508795094	-2.608165652026788	0.4577448201405123	2.66424170609038	0.8882494043734166	5.383508435373163e-08	-2.138351799639166e-08	-3.674565640094428e-07	2.58895199033041e-07	5.89975180780528e-08	-2.073675710827689e-07	-3.24556816923573e-07
0.04	-0.0002589202210674363	0.1259525354729126	0.9338102743516359	0.2009771704055446	-0.2144604796156776	-0.2366052264726325	-0.2952673391833011	0.2390553835109339	0.2390553835109308	0.1010245132261619	0.161953662640262	0.0915237255783536	0.08148863627649279	-0.06562031422881001	-0.06854431889124404	-0.03325058859611437	0.3701277296965484	0.002939706480290774	0.06934401157776399	-0.2364081966150326	0.3864215774255987	0.3864215774255976	-0.1077929835077352	0.02041665667557847	0.1082303851566413	0.035823937088296	0.09301871656290286	-0.04859238105634966	0.001760268776818046	-0.2294362771226637	0.1066004547030248	-0.0586653228997855	-0.01427141102712962	-29.58646682302649	-10.59974575782578	-23.13820929855412	-0.6821346916248778	1.83012508118748	-610.3709305069061	54.18911243929739	-1.660975465720446	-1.589761772530295	-0.8417447462070851	8.868995283384603	0.02140241616438941	1.624124970283975	-5.309720416276048	9.211302644282348	9.211302644282368	-2.453769009394917	0.499326463209955	2.603595972743666	0.8056820112859067	5.67384571200484e-08	-2.998601227582445e-08	-3.75251950129603e-07	2.381319915878165e-07	6.712687329101142e-08	-3.020577132026714e-07	-3.070544776706285e-07
0.05	-0.0009931014433460761	0.1251888355605426	0.93343633498344	0.2051099017327858	-0.2144287969315049	-0.2358316318330697	-0.2978977252395536	0.2433705395270354	0.2433705395270268	0.09982403137297202	0.1621803089352995	0.09273358853110085	0.08188793869551639	-0.08116902762987586	-0.0840944016917668	-0.04155470234435475	0.4559886590312812	0.003392106640504375	0.08527341133241405	-0.2892688451088117	0.4761341982215523	0.4761341982215516	-0.1321505223433532	0.02484320368286675	0.1336158209178828	0.04399996871113293	0.08836257864017495	-0.04376058852382651	0.001905049593759991	-0.2268145731466193	0.1040124775219437	-0.05963501240276263	-0.01029189820509001	-29.63398834454995	-11.43208463822845	-23.72758965152652	-0.5624622359696224	1.771937318369466	-609.8613518083865	51.87679827561857	-1.494776001941279	-1.522428758142185	-0.8274184610904504	8.380162257205436	0.05644742486521256	1.562171599341418	-5.214211637510284	8.779916290180067	8.779916290180147	-2.4038504372136	0.4039563484358455	2.487063914040218	0.8180473437957632	4.844666857869234e-08	-4.166036531521535e-08	-3.124451889596901e-07	1.200558321776235e-07	7.050029858912058e-08	-4.07213235877473e-07	-1.911399061976627e-07
0.06	-0.001881361144553344	0.1242726753753026	0.93297881972337	0.2100883464531192	-0.2143927325239567	-0.2349017783717014	-0.3010447126950579	0.2485685566496683	0.2485685566496646	0.0983845533080886	0.1624491482062229	0.09419351514870648	0.08236789815197075	-0.0964360100166488	-0.09903637346523116	-0.04996576697093809	0.5392704083135391	0.003816051157342929	0.1005957759384991	-0.3397284764658966	0.5629937987346335	0.5629937987346327	-0.1555922258417015	0.02885525184805332	0.1582431181281615	0.05195534457449816	0.08370644071743885	-0.03892879599131226	0.002049830410807759	-0.2241928691705909	0.1014245003408509	-0.06060470190575686	-0.006312385383049329	-29.6881140986868	-12.19930241845983	-24.32128516474539	-0.4241485901089819	1.71524646989565	-608.3132423601436	49.35586753527926	-1.604629262862201	-1.468139567118276	-0.863134921875699	8.35315927288956	0.01571128748938219	1.502717940570973	-4.829516988937403	8.640698587707819	8.640698587707744	-2.270601941940973	0.4164266947895753	2.451968262551498	0.7615508593916832	3.968350482438163e-08	-5.346405977607816e-08	-2.466657057986162e-07	-2.117714683726042e-09	7.367347420660449e-08	-5.128094061545861e-07	-7.108166178911701e-08
